<svg xmlns="http://www.w3.org/2000/svg" viewBox="0 0 42.1 42.1"><defs><style>.cls-1{fill:#161616;}.cls-2{fill:#fff;}</style></defs><g id="ELEMENTS"><rect class="cls-1" width="42.1" height="42.1"/><path class="cls-2" d="M30.42,9.68a2.08,2.08,0,1,0,2.07,2.07A2.08,2.08,0,0,0,30.42,9.68Z"/><path class="cls-2" d="M21.2,12.34a8.72,8.72,0,1,0,8.71,8.71A8.73,8.73,0,0,0,21.2,12.34Zm0,14.29a5.58,5.58,0,1,1,5.58-5.58A5.58,5.58,0,0,1,21.2,26.63Z"/><path class="cls-2" d="M28.11,38.74H14A10.64,10.64,0,0,1,3.36,28.12V14A10.64,10.64,0,0,1,14,3.36H28.11A10.64,10.64,0,0,1,38.74,14V28.12A10.64,10.64,0,0,1,28.11,38.74ZM14,6.69A7.3,7.3,0,0,0,6.69,14V28.12A7.3,7.3,0,0,0,14,35.41H28.11a7.3,7.3,0,0,0,7.3-7.29V14a7.3,7.3,0,0,0-7.3-7.3Z"/></g></svg>