<svg id="Layer_1" data-name="Layer 1" xmlns="http://www.w3.org/2000/svg" viewBox="0 0 634.03 60.38"><defs><style>.cls-1,.cls-2{fill:#231f20;}.cls-1{fill-rule:evenodd;}</style></defs><path class="cls-1" d="M404.89,62.82a10,10,0,1,1,10-10A10,10,0,0,1,404.89,62.82Zm0-18.24a8.25,8.25,0,1,0,8.25,8.25A8.24,8.24,0,0,0,404.88,44.58Z" transform="translate(-33.97 -42.85)"/><path class="cls-2" d="M401.39,59.2H403V54h1.77l3,5.17h2l-3.33-5.35a3.36,3.36,0,0,0,1.2-.36,3.28,3.28,0,0,0,.92-.71,3.1,3.1,0,0,0,.77-2,4.2,4.2,0,0,0-.17-1.14,2.65,2.65,0,0,0-.59-1.06,3,3,0,0,0-1.15-.78,4.91,4.91,0,0,0-1.86-.31h-4.12ZM403,48.86h2.09a5.7,5.7,0,0,1,.92.07,2.58,2.58,0,0,1,.81.27,1.51,1.51,0,0,1,.57.58,1.93,1.93,0,0,1,.22,1,2,2,0,0,1-.22,1,1.56,1.56,0,0,1-.57.57,2.58,2.58,0,0,1-.81.27,5.72,5.72,0,0,1-.92.08H403Z" transform="translate(-33.97 -42.85)"/><path class="cls-2" d="M451.51,95.08a19.25,19.25,0,1,1,15-31.27l5.24-5.25a26.66,26.66,0,1,0,0,34.55l-5.25-5.24A19.22,19.22,0,0,1,451.51,95.08Z" transform="translate(-33.97 -42.85)"/><path class="cls-2" d="M214,49.18a26.66,26.66,0,1,0,26.76,26.65A26.7,26.7,0,0,0,214,49.18Zm0,45.9A19.25,19.25,0,1,1,233.3,75.83,19.28,19.28,0,0,1,214,95.08Z" transform="translate(-33.97 -42.85)"/><polygon class="cls-1" points="132.4 7.06 124.97 7.06 124.97 58.9 148.71 58.9 148.71 51.49 132.4 51.49 132.4 7.06"/><polygon class="cls-1" points="101.04 7.06 93.61 7.06 93.61 58.9 117.34 58.9 117.34 51.49 101.04 51.49 101.04 7.06"/><polygon class="cls-1" points="536.27 58.9 543.7 58.9 543.7 34.49 559.3 34.49 559.3 27.09 543.7 27.09 543.7 14.47 562.28 14.47 562.28 7.06 536.27 7.06 536.27 58.9"/><polygon class="cls-1" points="501.39 58.9 508.82 58.9 508.82 34.49 524.41 34.49 524.41 27.09 508.82 27.09 508.82 14.47 527.4 14.47 527.4 7.06 501.39 7.06 501.39 58.9"/><polygon class="cls-2" points="65.32 51.47 65.32 43.27 65.32 34.52 80.92 34.52 80.92 27.09 65.32 27.09 65.32 14.5 83.9 14.5 83.9 7.06 81.6 7.06 65.32 7.06 57.89 7.06 57.89 14.5 57.89 27.09 57.89 34.52 57.89 43.27 57.89 51.47 57.89 58.9 65.32 58.9 85.32 58.9 85.32 51.47 65.32 51.47"/><polygon class="cls-2" points="296.81 51.47 296.81 43.27 296.81 34.52 312.4 34.52 312.4 27.09 296.81 27.09 296.81 14.5 315.39 14.5 315.39 7.06 313.08 7.06 296.81 7.06 289.38 7.06 289.38 14.5 289.38 27.09 289.38 34.52 289.38 43.27 289.38 51.47 289.38 58.9 296.81 58.9 316.8 58.9 316.8 51.47 296.81 51.47"/><polygon class="cls-2" points="578.59 51.47 578.59 43.27 578.59 34.52 594.18 34.52 594.18 27.09 578.59 27.09 578.59 14.5 597.16 14.5 597.16 7.06 594.86 7.06 578.59 7.06 571.15 7.06 571.15 14.5 571.15 27.09 571.15 34.52 571.15 43.27 571.15 51.47 571.15 58.9 578.59 58.9 598.58 58.9 598.58 51.47 578.59 51.47"/><polygon class="cls-2" points="614.03 51.47 614.03 43.27 614.03 34.52 629.63 34.52 629.63 27.09 614.03 27.09 614.03 14.5 632.61 14.5 632.61 7.06 630.3 7.06 614.03 7.06 606.6 7.06 606.6 14.5 606.6 27.09 606.6 34.52 606.6 43.27 606.6 51.47 606.6 58.9 614.03 58.9 634.03 58.9 634.03 51.47 614.03 51.47"/><polygon class="cls-2" points="41.27 14.5 24.35 31.42 7.43 14.5 0 7.07 0 17.58 0 58.9 7.43 58.9 7.43 25.01 19.09 36.67 24.35 41.93 29.61 36.67 41.27 25.01 41.27 58.9 48.7 58.9 48.7 17.58 48.7 7.07 41.27 14.5"/><path class="cls-2" d="M501.38,49.18A26.66,26.66,0,1,0,528,75.83,26.66,26.66,0,0,0,501.38,49.18Zm0,45.88a19.23,19.23,0,1,1,19.23-19.23A19.22,19.22,0,0,1,501.38,95.06Z" transform="translate(-33.97 -42.85)"/><path class="cls-2" d="M214,49.18a26.66,26.66,0,1,0,26.66,26.65A26.65,26.65,0,0,0,214,49.18Zm0,45.88a19.23,19.23,0,1,1,19.23-19.23A19.23,19.23,0,0,1,214,95.06Z" transform="translate(-33.97 -42.85)"/><path class="cls-2" d="M380.1,79.18,379.64,78A14.63,14.63,0,0,0,374,49.92H357.7v51.83h7.43V79.18h6.95l9.12,22.57h8ZM374,57.35a7.2,7.2,0,0,1,0,14.4h-8.84V57.35Z" transform="translate(-33.97 -42.85)"/><polyline class="cls-2" points="245.84 5.39 245.15 7.06 241.82 15.1 231.11 40.96 217.07 7.06 209.03 7.06 227.09 50.67 231.11 60.38 235.13 50.67 245.84 24.81 245.85 24.81 245.85 24.81 256.56 50.67 260.58 60.38 264.6 50.67 282.66 7.06 274.62 7.06 260.58 40.96 249.87 15.1 246.54 7.06 245.85 5.39"/></svg>