<svg id="Layer_1" data-name="Layer 1" fill="#ccc" xmlns="http://www.w3.org/2000/svg" viewBox="0 0 212.71 180.1"><defs><style>.cls-1,.cls-2{fill:#323031;}.cls-2{fill-rule:evenodd;}</style></defs><path class="cls-1" d="M34.47,26.9V207h72v-3.6h0V171l18,18,18-18v36h72V26.9Z" transform="translate(-34.47 -26.9)"/><path class="cls-2" d="M239,59.5a8.15,8.15,0,1,1,8.15-8.15A8.15,8.15,0,0,1,239,59.5Zm0-14.89a6.74,6.74,0,1,0,6.73,6.74A6.73,6.73,0,0,0,239,44.61Z" transform="translate(-34.47 -26.9)"/><path class="cls-1" d="M236.17,56.55h1.29V52.32h1.45l2.44,4.23H243l-2.72-4.37a2.61,2.61,0,0,0,1-.3,2.55,2.55,0,0,0,.75-.58,2.5,2.5,0,0,0,.46-.77,2.41,2.41,0,0,0,.16-.88,3.42,3.42,0,0,0-.13-.93,2.2,2.2,0,0,0-.48-.87,2.54,2.54,0,0,0-.94-.63,3.89,3.89,0,0,0-1.52-.25h-3.36Zm1.29-8.45h1.71a4.74,4.74,0,0,1,.75.06,1.91,1.91,0,0,1,.66.23,1.22,1.22,0,0,1,.47.46,1.94,1.94,0,0,1,0,1.59,1.16,1.16,0,0,1-.47.46,1.91,1.91,0,0,1-.66.23,4.74,4.74,0,0,1-.75.06h-1.71Z" transform="translate(-34.47 -26.9)"/></svg>