<svg id="Layer_1" data-name="Layer 1" xmlns="http://www.w3.org/2000/svg" viewBox="0 0 1618.18 828"><defs><style>.cls-1{fill:#e8e8e8;}</style></defs><path class="cls-1" d="M1119.82,453.65v0h0Z" transform="translate(-236.74 -144.61)"/><polygon class="cls-1" points="1513.95 622.9 1505.99 604.43 1497.4 604.43 1495.57 589.17 1491.88 572.62 1487.59 559.13 1479.01 561.82 1474.11 564.65 1474.11 580.59 1467.36 592.23 1459.39 592.23 1448.97 583.65 1448.97 571.39 1445.28 553 1428.12 553 1426.89 561.82 1413.71 565.88 1408.5 573.85 1388.88 571.39 1380.3 580.59 1367.42 588.56 1361.9 604.43 1350.23 609.41 1329.4 617.37 1313.46 627.8 1311.63 649.87 1302.43 660.3 1302.43 687.27 1309.78 697.09 1322.05 701.75 1340.44 692.8 1360.06 686.66 1373.55 676.24 1388.88 673.79 1399.91 682.37 1408.5 695.86 1414.63 701.75 1423.21 697.09 1428.12 706.28 1428.12 719.77 1448.97 722.83 1460.62 722.83 1466.13 716.09 1481.46 701.75 1494.95 694.63 1502.31 679.92 1520.7 667.03 1524.99 649.87 1521.93 635.77 1513.95 622.9"/><polygon class="cls-1" points="1440.38 739.39 1430.57 740.61 1430.57 748.58 1439.16 754.11 1453.26 747.36 1460 740.61 1445.28 734.48 1440.38 739.39"/><polygon class="cls-1" points="1610.83 701.75 1604.09 701.75 1601.63 713.02 1587.53 722.83 1577.72 727.74 1568.53 740 1557.49 744.29 1540.93 754.11 1531.73 754.11 1531.73 767.59 1539.71 771.89 1554.42 768.82 1566.07 762.99 1580.79 748.58 1601.02 744.29 1614.51 730.8 1618.18 712.41 1610.83 701.75"/><polygon class="cls-1" points="673.34 153.6 661.77 159.92 660.72 172.54 675.45 168.34 673.34 153.6"/><polygon class="cls-1" points="692.28 162.02 684.92 168.34 682.81 182.01 700.69 175.7 710.16 168.34 708.06 159.92 695.44 151.5 701.75 142.03 691.23 127.3 678.6 140.98 683.86 156.76 692.28 162.02"/><path class="cls-1" d="M1095.17,389.36c11,.51,13.63-2.88,10.73-13.61,14.65,4.2,28.42,11.39,44,11.95,7.16,2.86,10.56,7.33,6.74,15.15a8.22,8.22,0,0,0-.45,4.17c.54,5.62,3.91,8.83,9.17,10.31,5.54,1.55,11.9,3,16.35-.38s-.38-8.22-1.51-12.38c-1.26-4.65-5.94-9.43,1.2-13.71,2.57-1.54,0-4.92-1.47-4.68-11,1.79-12.37-9.24-18.72-13.51-4.1-2.75-4.1-6.76-.2-9.6,8.31-6.05,4.67-10.2-1.72-14.23-2.19-5.2-4.44-10.37-6.53-15.6-.75-1.88-2.13-5.67-1-5.68,8.53-.12,12-14.27,22.74-7.93,2.34,1.4,5.35,1.76,8.1,2.37,3.74.82,7.5.3,9.15-3.42a19.91,19.91,0,0,0-.42-17.42c-2.39-4.67-6.21-1.45-9.26-.34-3.6,1.31-6.91,2.14-9.26-1.82s-.36-6.7,3.22-8.51c4.23-2.14,6-5.75,3.56-9.57-9.09-14.21-7.38-31.51-13.79-46.44a9.52,9.52,0,0,1-.32-7.55l-19.86-1.17-31.56,6.31-15.78,13.68-11.57,9.47-8.42-12.63.3-.11-.72-1.08,18.79-7.3-2.59-5.18-30.51-5.27-40-7.36-30.51,10.52-15.78,20-13.68,11.57-5.26,8.42,2.91,14.55,19.82-5.22,3.09,6.8-.12,0,.53,1.17-8.87,1.62,1.8,7.23h10.41l-.46-4.54,13.61,8.74,9.46-11.57-5.89-16.7h0l-.42-1.19,5.27-12.62,12.62-9.47,10.52-3.16L1032,244l1.12-.34-6.31,13.68,2.88,12.48,28.26-2.1,5.26,8.42-.29.06.71,1.13-23.15,4.21-6.31,17.88-11.58,5.26-21,4.21-26.3-3.15-13.68,3.15-8.41,11.58-11.58,7.36-18.93,5.26-5.9,10.81,11.79,5.89-.55.71,1,.48-7.37,9.47-13.67,5.26-14.73,2.1v20l-3,14.87,15.19,7.09,25.25-7.37,1-17.88,15.78-7.37,5.26-11.57,18.94,4.21,6.31-5.26,12.63,8.41,14.73,13.68,6.31,10.52-.23.12.65,1.07-10,5,7.49,7.48,12.62-10.52-4-17.9L997.3,365.69l.43-.52-.85-.67,5.26-6.32,12.63,12.63,15.77,14.73,6.34,7c3.15-.88,6.73-1.11,9.49-2.47.71-.34,1.42-.67,2.13-1l-.07-.36,3.2-.92a51.1,51.1,0,0,1,7.69-2.19l3.84-1.1,17.89-1.06,4.93,3.88c1,.31,2,.65,3,1A20.33,20.33,0,0,0,1095.17,389.36Z" transform="translate(-236.74 -144.61)"/><path class="cls-1" d="M1806.49,674.93l-8-13.49-18.39-13.84H1764.8l-20.89,9.28-1.18-2.19h-18c-.35,1.92-.69,3.85-1,5.77-1.65,9.07-3.38,18.33-6.79,26.82l5,1.13h17.17l.08-.13,4.21,3.2,18.39,9.19,6.75-3.06-6.75-14.11,3.07-12.87,12.88-7.36,11,13.49,18.39,11.65h14.1V678Z" transform="translate(-236.74 -144.61)"/><polygon class="cls-1" points="276.7 425.05 261.97 428.2 255.66 416.63 263.02 394.54 246.19 388.22 227.25 389.27 241.98 370.34 241.98 353.5 225.15 354.56 219.89 361.92 206.21 372.44 184.12 368.23 185.17 337.72 191.48 308.26 216.73 301.95 246.19 299.85 266.18 305.11 270.39 330.36 280.91 328.25 283.01 297.74 300.9 280.91 320.89 269.33 331.41 245.14 356.66 223.04 390.33 214.63 396.64 195.69 393.49 176.75 428.2 176.75 446.09 168.34 436.62 151.5 423.99 142.03 429.25 122.04 398.74 122.04 396.64 107.31 365.08 110.47 359.82 136.77 339.83 151.5 339.83 167.28 325.1 166.23 329.31 148.35 295.64 146.24 289.32 130.46 319.84 106.26 340.88 94.69 354.56 88.38 345.09 66.28 322.99 68.39 303 78.91 270.39 83.12 230.41 72.59 184.12 70.49 167.28 75.75 123.09 65.23 75.75 66.28 19.99 97.84 0.76 115.84 0 138.87 16.09 143.43 35.77 134.67 46.29 123.09 71.54 119.94 101 137.82 103.11 158.87 115.73 185.17 104.16 206.21 90.48 231.46 87.32 270.39 102.05 285.12 98.9 309.32 118.89 350.35 124.15 346.14 110.47 312.47 116.78 303 133.62 335.62 145.19 364.02 176.75 387.17 195.69 385.06 213.57 401.9 229.36 401.9 240.93 419.78 252.5 438.72 280.91 439.77 276.7 425.05"/><polygon class="cls-1" points="497.64 511.32 479.76 511.32 470.29 496.59 436.62 496.59 434.52 483.96 426.1 456.61 393.49 451.35 373.49 438.72 353.51 438.72 341.93 422.94 319.84 413.47 295.64 427.15 284.07 449.25 281.96 477.65 268.28 492.38 265.13 522.89 277.75 537.62 280.91 561.82 303 578.65 328.25 597.59 331.41 624.95 331.41 661.77 332.46 684.91 331.41 715.42 336.67 761.72 350.35 799.59 377.7 824.84 404.01 828 399.8 817.48 384.02 808.01 376.65 795.39 390.33 782.76 391.38 770.13 380.86 766.98 376.65 752.25 387.17 742.78 391.38 728.05 414.53 725.95 417.68 712.27 407.16 705.96 405.06 696.49 426.1 701.75 445.04 676.49 446.09 650.2 459.76 630.2 481.86 627.05 492.38 607.06 493.44 571.28 507.11 553.4 520.79 527.1 500.8 522.89 497.64 511.32"/><polygon class="cls-1" points="635.46 49.44 635.46 36.82 641.78 25.25 659.66 22.09 657.56 12.62 640.73 12.62 599.7 0 561.82 3.15 514.48 10.52 457.66 31.56 461.87 43.14 485.01 41.03 497.64 59.97 488.17 81.01 488.17 104.15 499.75 116.78 519.74 118.88 538.67 99.95 564.98 92.58 577.6 76.8 610.22 74.7 622.84 57.86 635.46 49.44"/><polygon class="cls-1" points="423.99 196.74 428.2 198.85 446.09 203.05 453.45 191.48 441.88 178.85 423.99 196.74"/><polygon class="cls-1" points="270.39 346.14 251.45 348.24 273.55 353.5 295.64 366.13 314.58 365.07 303 351.4 270.39 346.14"/><polygon class="cls-1" points="340.88 368.23 325.1 361.92 309.32 377.7 331.41 377.7 340.88 368.23"/><polygon class="cls-1" points="271.44 46.29 244.09 48.4 227.25 56.81 241.98 59.97 271.44 46.29"/><polygon class="cls-1" points="454.51 84.17 438.72 72.59 423.99 57.86 406.11 55.76 373.49 50.5 366.13 55.76 367.18 72.59 360.87 78.91 364.02 86.27 376.65 82.06 384.02 91.53 401.9 103.11 417.68 112.57 430.31 102.05 428.2 89.43 439.78 92.58 454.51 84.17"/><polygon class="cls-1" points="371.39 43.14 409.26 46.29 423.99 34.72 451.35 25.25 481.86 15.78 486.07 9.47 405.06 12.62 374.55 18.94 379.81 23.14 390.33 31.56 376.65 30.51 371.39 43.14"/><polygon class="cls-1" points="256.71 73.65 279.86 73.65 298.79 69.44 305.11 53.66 275.65 52.6 250.4 61.02 256.71 73.65"/><polygon class="cls-1" points="326.15 35.77 300.9 36.82 289.32 43.14 313.52 46.29 326.15 35.77"/><polygon class="cls-1" points="331.41 57.86 340.88 50.5 327.2 48.4 319.84 56.81 331.41 57.86"/><polygon class="cls-1" points="366.13 47.34 351.4 47.34 347.19 55.76 356.66 56.81 366.13 47.34"/><polygon class="cls-1" points="348.24 96.79 347.19 103.11 344.03 107.31 364.02 103.11 358.76 89.43 348.24 96.79"/><polygon class="cls-1" points="95.74 164.13 85.22 153.6 86.27 163.07 93.64 175.7 95.74 164.13"/><polygon class="cls-1" points="961.61 564.97 943.73 591.28 942.68 611.26 936.36 616.52 934.26 635.46 945.84 647.04 957.4 633.37 964.77 604.95 972.13 581.8 971.09 561.82 961.61 564.97"/><path class="cls-1" d="M1170.39,554.49l-24.2-35.77-22.1-33.67-7.36-20,2.48-11.85v0l-40.36-15.47L1054.66,423l-13.68,2.1,5.26,16.83-8.41,9.47L1021,440.86l-1-12.62L989.43,423l8.41-13.68-31.56-3.16-29.46,9.47h-26.3l-16.83,17.88-1.06,20-23.14,8.41-14.73,29.46L857.91,524l-10.52,16.83,4.21,13.68L866.33,565l6.32,20,28.4,21,25.25-6.31,24.2-10.52,17.88,3.15L970.49,605l22.09-2.11,2.11,29.46,11.57,21,8.42,34.72,3.15,21-10.52,5.26-4.21,22.09,11.58,16.84,3.15,17.88v24.2l12.63,10.52,4.2,32.62,23.15,7.36,35.77-10.52,16.84-33.67,3.16-21.05,12.62,3.17,4.21-23.15-9.47-11.57,30.51-10.53,8.41-17.88-3.15-24.2L1154.6,666l16.84-34.72L1198.8,606l17.88-44.19-29.46,5.27Z" transform="translate(-236.74 -144.61)"/><polygon class="cls-1" points="1143.63 452.4 1150.99 451.35 1150.99 434.52 1140.47 432.41 1143.63 452.4"/><path class="cls-1" d="M1739.05,242.05V229.79l-28.2-5.52L1682,220l-18.38-4.9h-25.76l-59.47-3.44h-35l-15.94-8.82h-27.59l-8.59,8.82-24.52-5.15-8.34,5.15-27.08,4.51-5.26-10.52-48.4-5.26h-31.56l5.25-11.57s-38.92-7.37-42.08-7.37-21-7.36-21-7.36l-18.94-8.42h-18.94l6.32,12.63,23.15-1.06-1.06,8.42-20,5.26-32.61,14.73-12.63,6.31L1202,201.42l-14.73,6.31L1202,224.57l-21,2.1-15.28-.9a4.73,4.73,0,0,1-.47,1.14l.26,0a9.52,9.52,0,0,0,.32,7.55c6.41,14.93,4.7,32.23,13.79,46.44,2.45,3.82.67,7.43-3.56,9.57-3.58,1.81-5.63,4.44-3.22,8.51s5.66,3.13,9.26,1.82c3.05-1.11,6.87-4.33,9.26.34a19.91,19.91,0,0,1,.42,17.42c-1.65,3.72-5.41,4.24-9.15,3.42-2.75-.61-5.76-1-8.1-2.37-10.7-6.34-14.21,7.81-22.74,7.93-1.16,0,.22,3.8,1,5.68,2.09,5.23,4.34,10.4,6.53,15.6,6.39,4,10,8.18,1.72,14.23-3.9,2.84-3.9,6.85.2,9.6,6.35,4.27,7.77,15.3,18.72,13.51,1.44-.24,4,3.14,1.47,4.68-7.14,4.28-2.46,9.06-1.2,13.71,1.13,4.16,5.91,9,1.51,12.38s-10.81,1.93-16.35.38c-5.26-1.48-8.63-4.69-9.17-10.31a8.22,8.22,0,0,1,.45-4.17c3.82-7.82.42-12.29-6.74-15.15-15.57-.56-29.34-7.75-44-11.95,2.9,10.73.28,14.12-10.73,13.61a20.33,20.33,0,0,1-6.23-1c-1-.38-2-.72-3-1l9.8,7.7-6.31,7.36-25.26-1.05,3.16,5.26,22.1,4.21,25.25,2.11,3.15,21,.92,10.11,1,9.57.15,3.47,17.88,25.25,8.42,27.36,17.88,6.31v23.15l7.37,13.67,31.56-5.26,24.2-21,23.14-14.73-3.15-14.73-17.89-12.62v-7.37l-15.78,12.63-9.47-11.57-15.77-10.53-2.12-17.88L1201,456l15.79,13.68,17.89-4.21,5.25,10.52,36.83,2.11,17.88,2.1,5.26,15.78,11.57,9.47,9.47-3.16,4.21,27.36,13.68,26.3,14.73,26.3,10.52-8.42V539.15l25.25-22.1,15.78-18.94L1423,496l12.62,23.15,9.47,15.78,15.93.93,13.17,7.23,9.82,4.29h12.26L1498.7,564,1511.78,577l12.68-4.08,6.94-17.58L1529,539.42l-7-9.81-13.49-9.81,2-22.07H1540l22.07-6.54,14.71-14.72,2.45-22.89-2-20.44-11.44-19.61-20.44-9.41-3.68-11.44,15.53-8.17,18.81,5.72,13.49,6.13,9.31-8.18-5.23-9.81,3.27-13.08,20-3.27,5.31-9.81-1.43-28,.62-17.78-28.21-1.84-17.78-.61v-14.1l9.2-14.1h26.37l14.71,1.84,1.84-6.14,8-10.42,16.55,4.29,7.36,14.1,1.23,15.95,12.87,12.26,3.68,11.65h11.65l9.81-8.59-5.52-18.39L1681.41,285l-1.83-14.71,19.61-4.91,17.78-5.51,3.07-5.52-6.74-4.3,1.22-8Z" transform="translate(-236.74 -144.61)"/><polygon class="cls-1" points="1336.77 448.77 1326.32 463.48 1302.43 481.86 1306.11 500.27 1326.34 510.08 1337.38 505.78 1345.96 489.23 1350.23 464.71 1344.73 448.77 1336.77 448.77"/><polygon class="cls-1" points="1270.55 490.46 1265.02 479.42 1247.25 479.42 1247.25 489.85 1255.22 510.08 1266.87 518.66 1282.81 518.66 1282.81 507.63 1273 502.99 1270.55 490.46"/><polygon class="cls-1" points="1260.73 467.16 1268.71 461.64 1258.89 452.4 1256.44 442.4 1242.95 432.41 1239.89 423.02 1233.14 429.15 1242.95 442.4 1250.93 456.12 1260.73 467.16"/><polygon class="cls-1" points="1410.95 280.16 1423.21 275.25 1432.41 269.12 1436.7 250.72 1430.57 235.4 1426.28 226.2 1427.5 217.62 1417.69 213.32 1416.47 202.9 1410.95 198 1402.37 204.74 1410.95 224.97 1410.95 236.63 1410.95 255.63 1393.78 266.67 1380.3 275.25 1380.3 287.51 1389.49 295.48 1407.27 295.48 1410.95 280.16"/><polygon class="cls-1" points="1404.82 445.09 1393.78 437.67 1396.23 423.02 1389.49 414.12 1375.7 403.39 1375.7 391.13 1361.29 373.35 1353.93 378.26 1357.61 402.78 1346.58 419.95 1350.23 435.28 1366.81 427.92 1374.78 435.28 1382.13 452.4 1404.82 454.9 1404.82 445.09"/><polygon class="cls-1" points="1361.29 499.05 1358.22 516.21 1375.7 522.96 1380.3 516.21 1380.3 505.18 1386.42 499.05 1386.42 484.94 1399.91 479.42 1383.36 467.16 1366.19 479.42 1361.29 499.05"/><polygon class="cls-1" points="1336.15 543.8 1342.28 556.06 1368.65 553 1390.72 549.32 1396.85 541.04 1383.97 535.22 1372.32 543.8 1358.22 543.8 1350.23 537.05 1326.32 530.92 1308.56 522.96 1293.85 526.02 1290.16 534.61 1311.01 539.51 1336.15 543.8"/><path class="cls-1" d="M1724.76,654.69h-3.49l-8.59-11-15.32-9.2-11.65,6.13v3.07h-9.2l-6.74-9.2L1667.31,621l-14.1,5.5,6.13,17.19,14.1,11,13.56,4,15.87,11.9,5.52,14.72,8.54,1.93c3.41-8.49,5.14-17.75,6.79-26.82C1724.07,658.54,1724.41,656.61,1724.76,654.69Z" transform="translate(-236.74 -144.61)"/></svg>