<svg id="Layer_1" data-name="Layer 1" xmlns="http://www.w3.org/2000/svg" viewBox="0 0 19.97 19.97"><defs><style>.cls-1{fill:#231f20;fill-rule:evenodd;}</style></defs><path class="cls-1" d="M424.87,175.72a10,10,0,1,1,10-10A10,10,0,0,1,424.87,175.72Zm0-18.24a8.25,8.25,0,1,0,8.25,8.25A8.24,8.24,0,0,0,424.86,157.48Z" transform="translate(-414.89 -155.75)"/><path d="M427.6,169.46a5.13,5.13,0,0,1-2.07.35c-2.8,0-4.24-1.74-4.24-4a4.13,4.13,0,0,1,4.42-4.3,5,5,0,0,1,2,.36l-.37,1.45a4.11,4.11,0,0,0-1.54-.3,2.66,2.66,0,0,0,0,5.32,4.46,4.46,0,0,0,1.53-.27Z" transform="translate(-414.89 -155.75)"/></svg>